HIERARCHY
ROOT pelvis
{
	OFFSET 0.00 0.00 0.00
	CHANNELS 6 Xposition Yposition Zposition Xrotation Yrotation Zrotation
	JOINT lfemur
	{
		OFFSET 0.00000 4.16428 0.00000
		CHANNELS 3 Xrotation Yrotation Zrotation
		JOINT ltibia
		{
			OFFSET 0.00000 0.00000 -15.73635
			CHANNELS 3 Xrotation Yrotation Zrotation
			JOINT lfoot
			{
				OFFSET 0.00000 0.00000 -15.24505
				CHANNELS 3 Xrotation Yrotation Zrotation
				JOINT ltoes
				{
					OFFSET 4.29365 0.00000 0.00000
					CHANNELS 3 Xrotation Yrotation Zrotation
				}
			}
		}
	}
	JOINT rfemur
	{
		OFFSET 0.00000 -4.16428 0.00000
		CHANNELS 3 Xrotation Yrotation Zrotation
		JOINT rtibia
		{
			OFFSET 0.00000 0.00000 -15.73635
			CHANNELS 3 Xrotation Yrotation Zrotation
			JOINT rfoot
			{
				OFFSET 0.00000 0.00000 -15.24505
				CHANNELS 3 Xrotation Yrotation Zrotation
				JOINT rtoes
				{
					OFFSET 4.29365 0.00000 0.00000
					CHANNELS 3 Xrotation Yrotation Zrotation
				}
			}
		}
	}
	JOINT thorax
	{
		OFFSET -1.96850 0.00000 5.24637
		CHANNELS 6 Xposition Yposition Zposition Xrotation Yrotation Zrotation
		JOINT head
		{
			OFFSET 0.00000 0.00000 14.46851
			CHANNELS 6 Xposition Yposition Zposition Xrotation Yrotation Zrotation
		}
		JOINT lclavicle
		{
			OFFSET 0.00000 0.00000 12.15561
			CHANNELS 3 Xrotation Yrotation Zrotation
			JOINT lhumerus
			{
				OFFSET 0.00000 6.68892 -0.39076
				CHANNELS 3 Xrotation Yrotation Zrotation
				JOINT lradius
				{
					OFFSET 0.00000 0.00000 -8.96939
					CHANNELS 3 Xrotation Yrotation Zrotation
					JOINT lhand
					{
						OFFSET 0.00000 0.00000 -10.08301
						CHANNELS 3 Xrotation Yrotation Zrotation
					}
				}
			}
		}
		JOINT rclavicle
		{
			OFFSET 0.00000 0.00000 12.15561
			CHANNELS 3 Xrotation Yrotation Zrotation
			JOINT rhumerus
			{
				OFFSET 0.00000 -6.68892 -0.39076
				CHANNELS 3 Xrotation Yrotation Zrotation
				JOINT rradius
				{
					OFFSET 0.00000 0.00000 -8.96939
					CHANNELS 3 Xrotation Yrotation Zrotation
					JOINT rhand
					{
						OFFSET 0.00000 0.00000 -10.08301
						CHANNELS 3 Xrotation Yrotation Zrotation
					}
				}
			}
		}
	}
}
MOTION
Frames: 15
Frame Time: 0.008333
 11.7312 -17.7523 27.3950 0.6499 -8.3024 166.5299 15.7896 -42.1196 32.1852 -0.0000 73.1268 0.0000 -0.0000 -14.0385 8.6892 0.0000 -22.3154 -0.0000 -25.3457 -44.6927 -46.2926 -0.0000 83.0392 0.0000 -0.0000 10.3952 13.0695 0.0000 -38.9557 -0.0000 11.3482 -17.2447 32.7243 -15.1721 10.6601 5.0985 4.8973 -19.4589 44.5949 16.4280 -36.7539 63.1210 0.6167 -0.0000 -27.4963 98.7947 16.0441 60.2363 -0.0000 -13.6367 58.2338 4.3622 0.4616 0.0000 -3.3255 -0.0000 16.5215 -51.5932 5.7352 -76.9900 0.0000 -24.0494 -45.5739 -6.2744 4.1980 -0.0000
 11.8285 -17.6530 27.3670 0.8112 -8.1950 166.3763 16.4078 -41.9987 32.6595 -0.0000 73.1327 0.0000 -0.0000 -14.4256 8.6375 0.0000 -21.8694 -0.0000 -26.7696 -45.2926 -47.3473 -0.0000 84.2411 0.0000 -0.0000 13.3754 15.0878 -0.0000 -38.6027 -0.0000 11.4322 -17.1081 32.6997 -15.2647 11.1120 5.2822 4.8965 -19.3194 44.5240 15.8036 -36.1251 62.7639 0.3225 -0.0000 -27.6549 98.5039 15.9205 60.2651 0.0000 -13.4888 57.6907 3.0442 0.2555 -0.0000 -3.0517 0.0000 16.8478 -51.3712 5.3681 -76.7462 0.0000 -23.6654 -45.6279 -6.2362 4.1296 -0.0000
 11.9229 -17.5375 27.3493 0.8771 -8.2346 165.8074 17.3739 -41.7702 33.7457 -0.0000 73.0097 0.0000 -0.0000 -14.7156 8.5746 0.0000 -21.9344 -0.0000 -27.8573 -46.2985 -47.8190 -0.0000 85.2883 0.0000 0.0000 15.8606 16.9681 0.0000 -36.6231 -0.0000 11.5255 -16.9346 32.6956 -15.6260 11.3472 5.9937 4.8996 -19.1668 44.4572 15.1020 -35.5896 62.2024 0.1613 -0.0000 -27.7568 98.1363 15.6215 60.1836 -0.0000 -13.6215 57.3726 3.7077 0.4292 -0.0000 -2.7052 0.0000 16.7660 -51.0240 4.6493 -76.5662 0.0000 -23.4593 -45.6581 -6.5202 4.1621 0.0000
 12.0085 -17.4359 27.3296 1.0790 -8.1752 165.5817 18.0516 -41.6211 34.2070 -0.0000 73.0178 0.0000 -0.0000 -15.1818 8.5269 0.0000 -21.2521 -0.0000 -29.1493 -46.8499 -48.6779 -0.0000 86.2108 0.0000 0.0000 17.9780 18.9697 0.0000 -34.2868 -0.0000 11.5968 -16.7810 32.6729 -15.6664 11.6900 6.2162 4.8984 -19.0282 44.4007 14.5303 -34.8856 61.9307 -0.1759 -0.0000 -27.8909 97.8662 15.5446 60.1983 0.0000 -13.5579 56.8730 3.0449 0.7004 0.0000 -2.5273 0.0000 17.0136 -50.6882 4.1853 -76.3463 -0.0000 -23.1727 -45.6329 -6.2973 4.5100 0.0000
 12.1025 -17.3059 27.3234 1.3524 -8.3775 165.0047 19.4243 -41.4699 35.4109 -0.0000 73.0231 0.0000 -0.0000 -15.4465 8.3218 0.0000 -21.1978 -0.0000 -29.6628 -47.8406 -48.7718 -0.0000 86.8571 0.0000 -0.0000 19.2526 19.8649 0.0000 -31.4004 -0.0000 11.6936 -16.6044 32.6741 -15.7573 11.8414 6.9038 4.9144 -18.8791 44.3507 13.8505 -34.2474 61.4599 -0.4067 -0.0000 -27.8546 97.5819 15.2002 59.8592 -0.0000 -13.7223 57.1733 3.3536 0.6195 -0.0000 -2.4573 0.0000 16.7968 -50.0780 3.0826 -76.7341 -0.0000 -22.9621 -45.0895 -6.5473 4.2831 -0.0000
 12.2032 -17.1659 27.3112 2.0828 -8.7264 165.1597 20.8419 -41.8595 35.7303 -0.0000 73.3519 0.0000 -0.0000 -15.5487 8.2034 0.0000 -21.0488 0.0000 -30.2016 -48.2339 -49.6797 -0.0000 87.2969 0.0000 0.0000 19.8709 19.7662 0.0000 -29.9573 -0.0000 11.7583 -16.4046 32.6915 -15.3241 11.9674 6.6841 4.9314 -18.7591 44.2936 13.5786 -33.2678 61.7286 -0.8078 -0.0000 -27.7337 97.6215 15.0064 59.3853 -0.0000 -13.7111 57.2844 3.3498 0.7211 -0.0000 -2.1404 0.0000 16.9167 -49.5770 2.1166 -77.2376 0.0000 -22.7119 -44.2454 -6.5837 4.1827 -0.0000
 12.3006 -17.0555 27.3144 2.2055 -8.6832 165.0212 21.4766 -41.8640 36.0215 -0.0000 73.4160 0.0000 -0.0000 -15.1432 8.0527 0.0000 -21.4423 0.0000 -31.1608 -48.5606 -50.1204 -0.0000 87.7684 0.0000 0.0000 19.6685 18.4105 -0.0000 -29.7889 -0.0000 11.8592 -16.2888 32.6966 -15.2384 12.4591 7.0437 4.9484 -18.5962 44.2601 12.6012 -32.7909 60.8384 -1.2566 -0.0000 -28.0681 97.1991 14.8964 59.5011 -0.0000 -13.8532 57.1111 3.5892 0.5266 -0.0000 -1.9844 0.0000 17.0439 -49.5609 1.7885 -76.9642 0.0000 -22.3760 -44.4282 -6.8740 4.3044 0.0000
 12.3955 -16.9296 27.3290 2.3572 -8.6976 164.9508 22.1341 -41.9063 36.2772 -0.0000 73.4154 0.0000 -0.0000 -14.7231 8.0289 0.0000 -21.8504 -0.0000 -31.8879 -48.8339 -50.4532 -0.0000 88.0810 0.0000 0.0000 18.8964 15.9562 0.0000 -30.5158 -0.0000 11.9560 -16.1362 32.7158 -15.2603 12.9114 7.1516 4.9575 -18.4449 44.2268 12.0580 -32.3826 60.3711 -1.6551 0.0000 -28.1453 96.9440 14.7555 59.5366 -0.0000 -13.9960 57.1011 4.2704 0.6218 0.0000 -1.7888 -0.0000 17.1586 -49.3136 1.1565 -76.6541 -0.0000 -22.2353 -44.5126 -6.9277 4.1281 0.0000
 12.5071 -16.7585 27.3698 2.7024 -8.9091 164.7551 23.4920 -41.9310 37.1422 -0.0000 73.4009 0.0000 -0.0000 -14.2113 7.7935 0.0000 -22.2340 -0.0000 -31.6602 -49.2942 -50.0627 -0.0000 87.9562 0.0000 0.0000 17.9021 12.5566 0.0000 -31.4756 -0.0000 12.0631 -15.9510 32.7589 -15.2422 13.2125 7.6103 4.9702 -18.2783 44.2057 11.4258 -32.0460 59.7670 -1.9747 -0.0000 -28.2132 96.8736 14.3026 59.4776 -0.0000 -13.9256 57.0087 4.1867 0.2004 0.0000 -1.5396 0.0000 17.0032 -49.1494 0.1744 -77.3439 0.0000 -21.6237 -43.2414 -6.7290 4.3264 0.0000
 12.6171 -16.6140 27.4074 2.7458 -8.9070 164.8472 23.9591 -42.0389 37.2942 -0.0000 73.2357 0.0000 -0.0000 -13.6239 7.7917 0.0000 -22.3038 -0.0000 -32.2176 -49.3753 -50.0799 -0.0000 87.9334 0.0000 0.0000 16.7006 9.2317 0.0000 -30.9691 -0.0000 12.1526 -15.7864 32.7888 -15.3344 13.6307 7.5745 4.9799 -18.1206 44.1831 10.8453 -31.4870 59.4203 -2.3093 -0.0000 -28.3022 96.5752 14.1104 59.5229 -0.0000 -13.9354 57.1021 4.7548 0.5981 0.0000 -1.3227 0.0000 17.2019 -48.9988 -0.2299 -76.7733 0.0000 -21.3149 -43.1411 -6.6594 4.2241 -0.0000
 12.7384 -16.4890 27.4554 2.8025 -8.8905 165.2076 24.0310 -42.3334 36.8591 -0.0000 73.0095 0.0000 -0.0000 -12.9638 7.9196 0.0000 -22.3295 -0.0000 -32.9511 -49.2758 -50.2848 -0.0000 87.7982 0.0000 0.0000 15.6637 5.9848 -0.0000 -29.1160 -0.0000 12.2653 -15.6479 32.8371 -15.2893 14.2937 7.1729 4.9882 -17.9585 44.1678 10.3084 -31.0748 59.2584 -2.7434 -0.0000 -28.2893 96.2652 13.8777 59.6502 -0.0000 -14.0675 57.3759 5.8384 0.1954 0.0000 -1.0610 0.0000 17.4072 -49.0541 -0.7761 -75.9757 0.0000 -21.0801 -43.2287 -7.0131 4.2714 -0.0000
 12.8515 -16.3054 27.5041 2.7283 -8.9283 165.1321 24.6389 -42.2830 37.3027 -0.0000 72.7329 0.0000 -0.0000 -12.3000 7.6318 0.0000 -22.6072 -0.0000 -33.0885 -49.5068 -49.6513 -0.0000 87.5257 0.0000 0.0000 14.7855 3.0900 0.0000 -26.9558 -0.0000 12.3603 -15.4746 32.8844 -15.5248 14.6734 7.0980 4.9995 -17.7903 44.1579 9.8858 -30.5629 59.1986 -3.0680 -0.0000 -28.0816 96.0388 13.5478 59.6775 -0.0000 -13.9547 57.3178 5.8649 0.1941 0.0000 -0.8276 0.0000 17.7901 -48.9511 -1.1994 -75.4945 0.0000 -20.8403 -42.8986 -7.0769 4.4476 0.0000
 12.9731 -16.1154 27.5576 2.6169 -9.0176 164.9856 25.3059 -42.2062 37.8895 -0.0000 72.3683 0.0000 -0.0000 -11.6896 7.3539 0.0000 -22.7390 -0.0000 -33.0672 -49.8307 -48.7986 -0.0000 87.1383 0.0000 -0.0000 13.7940 0.3061 -0.0000 -24.0040 -0.0000 12.4593 -15.3031 32.9364 -15.7985 14.9797 7.2630 5.0127 -17.6276 44.1578 9.4735 -30.0251 58.9786 -3.4152 -0.0000 -27.9614 95.8315 13.0404 59.6385 -0.0000 -13.9458 57.4361 7.3567 0.2489 0.0000 -0.5577 0.0000 17.8913 -48.9353 -1.7404 -74.9403 0.0000 -20.5481 -42.8246 -6.9856 4.1471 -0.0000
 13.0943 -15.9177 27.6130 2.4637 -9.2120 164.8370 26.0233 -42.1694 38.5863 -0.0000 71.9564 0.0000 -0.0000 -11.1343 6.9565 0.0000 -22.7961 -0.0000 -32.9816 -50.1454 -47.9358 -0.0000 86.5773 0.0000 0.0000 12.8237 -2.3328 0.0000 -20.6556 -0.0000 12.5503 -15.1007 32.9964 -16.1665 15.1168 7.6772 5.0354 -17.4558 44.1675 8.9717 -29.4396 58.4621 -3.6861 -0.0000 -27.9985 95.7100 12.3719 59.6922 0.0000 -13.6746 57.1807 7.2153 0.0218 0.0000 -0.3108 0.0000 17.6572 -48.7341 -2.4210 -74.4797 0.0000 -20.2645 -42.6999 -7.1584 3.7862 0.0000
 13.2141 -15.7396 27.6743 2.3753 -9.3370 165.0053 26.3584 -42.2610 38.7296 -0.0000 71.4561 0.0000 -0.0000 -10.4378 6.7644 0.0000 -23.1655 -0.0000 -33.0895 -50.0529 -47.4246 -0.0000 85.8110 0.0000 -0.0000 12.4545 -4.6026 0.0000 -17.4368 0.0000 12.6395 -14.9059 33.0540 -16.3535 15.3502 7.4856 5.0607 -17.2783 44.1862 8.4849 -28.7172 58.1510 -3.9843 -0.0000 -28.1364 95.4898 12.2609 59.7481 -0.0000 -13.5960 56.7944 3.9450 0.9290 0.0000 -0.0366 -0.0000 17.9409 -48.5052 -2.8357 -74.1272 0.0000 -20.2765 -42.8138 -7.2951 3.9205 -0.0000
